<svg width="1427" height="816" viewBox="0 0 1427 816" fill="none" xmlns="http://www.w3.org/2000/svg">
<path d="M374.398 729V729.5H374.898H565.809H566.309V729V683.954V683.454H565.809H424.735V428.691V428.191H424.235H374.898H374.398V428.691V729ZM746.429 544.495C731.732 528.231 709.65 518.284 683.864 518.284C627.778 518.284 584.263 565.739 584.263 626.466C584.263 686.768 627.782 733.79 683.864 733.79C709.644 733.79 731.728 724.259 746.429 708.007V729V729.5H746.929H794.121H794.621V729V523.074V522.574H794.121H746.929H746.429V523.074V544.495ZM845.994 729V729.5H846.494H893.685H894.185V729V606.302C894.185 592.701 899.069 582.007 907.054 574.71C915.044 567.408 926.178 563.472 938.731 563.472C951.284 563.472 962.31 567.407 970.192 574.708C978.07 582.004 982.849 592.698 982.849 606.302V729V729.5H983.349H1030.54H1031.04V729V606.302C1031.04 592.701 1035.92 582.007 1043.91 574.71C1051.9 567.408 1063.03 563.472 1075.59 563.472C1088.14 563.472 1099.16 567.407 1107.05 574.708C1114.92 582.004 1119.7 592.698 1119.7 606.302V729V729.5H1120.2H1167.4H1167.9V729V596.006C1167.9 572.064 1158.94 552.623 1144.41 539.17C1129.88 525.722 1109.8 518.284 1087.6 518.284C1058.97 518.284 1034.55 530.987 1018.99 552.207C1005.5 530.553 981.074 518.284 952.889 518.284C929.227 518.284 908.432 526.979 894.185 542.776V523.074V522.574H893.685H846.494H845.994V523.074V729ZM1215.51 814.802V815.302H1216.01H1263.21H1263.71V814.802V708.007C1278.41 724.259 1300.49 733.79 1326.27 733.79C1382.35 733.79 1425.87 686.768 1425.87 626.466C1425.87 565.739 1382.36 518.284 1326.27 518.284C1300.49 518.284 1278.4 528.231 1263.71 544.495V523.074V522.574H1263.21H1216.01H1215.51V523.074V814.802ZM691.587 688.173C674.557 688.173 660.106 681.79 649.909 670.85C639.71 659.907 633.741 644.375 633.741 626.037C633.741 607.699 639.71 592.167 649.909 581.224C660.106 570.284 674.557 563.901 691.587 563.901C708.832 563.901 723.282 570.285 733.424 581.223C743.569 592.165 749.432 607.696 749.432 626.037C749.432 644.378 743.569 659.909 733.424 670.851C723.282 681.789 708.832 688.173 691.587 688.173ZM1318.55 688.173C1301.3 688.173 1286.85 681.789 1276.71 670.851C1266.57 659.909 1260.7 644.378 1260.7 626.037C1260.7 607.696 1266.57 592.165 1276.71 581.223C1286.85 570.285 1301.3 563.901 1318.55 563.901C1335.58 563.901 1350.03 570.284 1360.23 581.224C1370.42 592.167 1376.39 607.699 1376.39 626.037C1376.39 644.375 1370.42 659.907 1360.23 670.85C1350.03 681.79 1335.58 688.173 1318.55 688.173Z" fill="#4d0a8f" stroke="#4d0a8f"/>
<path d="M592.5 493.5H208C208 493.5 264 386 280 265H528.5C546.003 386 592.5 493.5 592.5 493.5Z" fill="white" stroke="#4d0a8f" stroke-width="43"/>
<line x1="4.17472" y1="291.868" x2="162.734" y2="317.691" stroke="#4d0a8f" stroke-width="43"/>
<line x1="397.5" y1="164" x2="397.5" y2="9.39794e-07" stroke="#4d0a8f" stroke-width="43"/>
<line x1="642.545" y1="316.779" x2="814.545" y2="288.779" stroke="#4d0a8f" stroke-width="43"/>
</svg>
